<?xml version="1.0" encoding="utf-8"?>
<!-- Generator: Adobe Illustrator 23.0.0, SVG Export Plug-In . SVG Version: 6.00 Build 0)  -->
<svg version="1.1" id="Capa_1" xmlns="http://www.w3.org/2000/svg" xmlns:xlink="http://www.w3.org/1999/xlink" x="0px" y="0px"
	 viewBox="0 0 405.2 491.3" style="enable-background:new 0 0 405.2 491.3;" xml:space="preserve">
<style type="text/css">
	.st0{fill:#768A9C;}
	.st1{fill:#637071;}
	.st2{fill:#EBE4D4;}
	.st3{fill:#C5BCB5;}
	.st4{fill:#8E1546;}
	.st5{fill:#FFFFFF;}
</style>
<g>
	<g>
		<path class="st0" d="M394.1,491.3H11.1c-6.1,0-11.1-5-11.1-11.1V11.1C0,5,5,0,11.1,0h383.1c6.1,0,11.1,5,11.1,11.1v469.2
			C405.2,486.4,400.3,491.3,394.1,491.3z"/>
		<rect x="17.4" y="21.1" class="st1" width="370.4" height="449.1"/>
		<rect x="20.4" y="24.7" class="st2" width="364.4" height="441.9"/>
	</g>
	<g>
		<g>
			<rect x="104.5" y="104.6" class="st3" width="273.2" height="11.9"/>
			<rect x="104.5" y="125.8" class="st3" width="273.2" height="11.9"/>
		</g>
		<g>
			<circle class="st4" cx="53.3" cy="121.2" r="19.5"/>
			<polygon class="st5" points="43.5,121 40.8,124.2 50.9,132.4 65.8,113.1 62.2,110 50.6,126.6 			"/>
		</g>
	</g>
	<g>
		<g>
			<rect x="104.5" y="173.9" class="st3" width="273.2" height="11.9"/>
			<rect x="104.5" y="195.1" class="st3" width="273.2" height="11.9"/>
		</g>
		<g>
			<circle class="st4" cx="53.3" cy="190.5" r="19.5"/>
			<polygon class="st5" points="43.5,190.3 40.8,193.5 50.9,201.7 65.8,182.3 62.2,179.3 50.6,195.9 			"/>
		</g>
	</g>
	<g>
		<g>
			<rect x="104.5" y="243.2" class="st3" width="273.2" height="11.9"/>
			<rect x="104.5" y="264.4" class="st3" width="273.2" height="11.9"/>
		</g>
		<g>
			<circle class="st4" cx="53.3" cy="259.7" r="19.5"/>
			<polygon class="st5" points="43.5,259.6 40.8,262.7 50.9,270.9 65.8,251.6 62.2,248.5 50.6,265.2 			"/>
		</g>
	</g>
	<g>
		<g>
			<rect x="104.5" y="312.4" class="st3" width="273.2" height="11.9"/>
			<rect x="104.5" y="333.6" class="st3" width="273.2" height="11.9"/>
		</g>
		<g>
			<circle class="st4" cx="53.3" cy="329" r="19.5"/>
			<polygon class="st5" points="43.5,328.8 40.8,332 50.9,340.2 65.8,320.9 62.2,317.8 50.6,334.4 			"/>
		</g>
	</g>
	<g>
		<g>
			<rect x="104.5" y="381.7" class="st3" width="273.2" height="11.9"/>
			<rect x="104.5" y="402.9" class="st3" width="273.2" height="11.9"/>
		</g>
		<g>
			<circle class="st4" cx="53.3" cy="398.3" r="19.5"/>
			<polygon class="st5" points="43.5,398.1 40.8,401.2 50.9,409.4 65.8,390.1 62.2,387.1 50.6,403.7 			"/>
		</g>
	</g>
	<g>
		<path class="st4" d="M132.3,66.6c0.2-1.9,0.5-3.7,0.9-5.6c0.4-1.8,0.8-3.7,1.4-5.5c0.2-0.6,0.5-1.4,0.8-2.3s0.8-1.8,1.2-2.6
			c0.5-0.8,1-1.6,1.7-2.2c0.7-0.6,1.4-1,2.2-1c0.8,0,1.4,0.1,1.8,0.5c0.4,0.4,0.7,0.8,0.9,1.4c0.2,0.5,0.2,1.1,0.2,1.8
			c-0.1,0.6-0.2,1.2-0.3,1.7c-0.3,0.8-0.8,1.6-1.4,2.5c-0.7,0.8-1.5,1.6-2.6,2.4h-0.6c1.4-1,2.3-2,3-3c0.6-1,1-1.9,1.1-2.7
			c0.1-0.8,0-1.5-0.3-2c-0.3-0.5-0.8-0.8-1.3-0.8c-0.5,0-1,0.1-1.4,0.5c-0.4,0.3-0.8,0.8-1.2,1.3c-0.4,0.6-0.7,1.3-1,2.1
			c-0.3,0.8-0.6,1.7-1,2.6c-0.1,0.4-0.3,1-0.5,1.9s-0.5,2-0.7,3.2c-0.2,1.2-0.5,2.4-0.7,3.6c-0.2,1.2-0.3,2.3-0.4,3.3
			c0.5-0.1,0.9,0,1.3,0.1c0.4,0.2,0.8,0.3,1.2,0.5c0.4,0.2,0.7,0.4,1.1,0.6c0.3,0.2,0.7,0.3,1,0.2c0.3,0,0.6-0.2,0.9-0.4
			c0.3-0.2,0.6-0.5,0.8-0.8c0.3-0.3,0.5-0.6,0.7-1c0.2-0.3,0.4-0.6,0.5-0.8h0.8c0,0,0,0,0,0c0,0,0,0,0,0c-0.2,0.3-0.4,0.6-0.6,1
			c-0.3,0.4-0.5,0.8-0.9,1.2c-0.3,0.4-0.7,0.7-1.1,1c-0.4,0.3-0.8,0.4-1.2,0.4c-0.4,0-0.8-0.1-1.2-0.3c-0.4-0.2-0.7-0.4-1.1-0.6
			c-0.4-0.2-0.7-0.4-1.1-0.5c-0.4-0.1-0.8-0.2-1.2-0.1c0,0.2,0,0.3,0,0.5s0,0.3,0.1,0.4l-1.8,0.6c-0.1-0.4-0.2-0.9-0.1-1.5
			C132.2,67.8,132.2,67.2,132.3,66.6z"/>
		<path class="st4" d="M147.9,56.9c-0.1,0.2-0.2,0.6-0.4,1.3c-0.2,0.7-0.4,1.4-0.7,2.3c-0.2,0.9-0.5,1.8-0.7,2.7
			c-0.2,1-0.3,1.8-0.4,2.7c-0.1,0.8-0.1,1.5,0.1,2.1c0.1,0.6,0.4,0.9,0.8,0.9c0.2,0,0.4,0,0.7-0.2c0.3-0.2,0.5-0.5,0.8-0.8
			c0.3-0.3,0.6-0.7,0.8-1.2c0.3-0.4,0.5-0.9,0.8-1.4h0.4c-0.3,0.6-0.6,1.2-1,1.7c-0.4,0.6-0.7,1.1-1.1,1.5c-0.4,0.4-0.8,0.8-1.3,1
			c-0.4,0.3-0.9,0.4-1.3,0.4c-0.5,0-0.9-0.2-1.1-0.6c-0.2-0.4-0.4-0.8-0.5-1.3c-0.1-0.5-0.1-1-0.1-1.5c0-0.5,0.1-0.9,0.1-1.2
			c0.1-0.7,0.2-1.5,0.4-2.3c0.2-0.8,0.4-1.6,0.5-2.2c0.2-0.7,0.3-1.3,0.5-1.8c0.2-0.5,0.3-0.9,0.3-1.1L147.9,56.9z M147.8,55
			c0.1,0.2,0.1,0.5,0,0.7c-0.2,0.2-0.4,0.4-0.7,0.6c-0.3,0.1-0.6,0.2-0.9,0.2s-0.5-0.1-0.7-0.4c-0.2-0.3-0.2-0.5,0-0.7
			c0.2-0.2,0.4-0.4,0.7-0.5c0.3-0.1,0.6-0.2,0.9-0.2C147.4,54.7,147.7,54.8,147.8,55z"/>
		<path class="st4" d="M153.4,57.9l2.3-0.8c-0.5,0.7-0.9,1.3-1,1.8c-0.2,0.6-0.2,1.1-0.2,1.6c0.1,0.5,0.2,1,0.4,1.5
			c0.2,0.5,0.4,1,0.6,1.5c0.2,0.5,0.4,1,0.5,1.6c0.1,0.5,0.1,1.1,0,1.7c0.7,0.1,1.2,0,1.6-0.3c0.4-0.3,0.7-0.7,0.9-1.1h0.4
			c-0.2,0.6-0.6,1.1-1.1,1.5c-0.5,0.4-1.1,0.5-1.9,0.4c-0.2,1-0.7,1.7-1.4,2.1c-0.7,0.4-1.5,0.6-2.4,0.6c-0.3,0-0.6,0-0.9-0.1
			c-0.3-0.1-0.5-0.2-0.8-0.4c-0.2-0.2-0.4-0.4-0.5-0.6c-0.1-0.3-0.1-0.5-0.1-0.9c0.1-0.5,0.3-0.8,0.7-1.1c0.3-0.2,0.7-0.4,1.1-0.5
			c0.4-0.1,0.8-0.1,1.3,0c0.4,0,0.8,0.1,1.2,0.2c0.1-0.7,0.1-1.2,0-1.7c-0.2-0.5-0.4-1-0.7-1.4c-0.3-0.4-0.6-0.8-0.8-1.2
			c-0.3-0.4-0.4-0.8-0.4-1.3l-2.2,4.7h-0.4c0.3-0.6,0.6-1.3,0.9-1.9c0.3-0.7,0.6-1.3,0.9-2c0.3-0.7,0.6-1.3,0.9-1.9
			C152.7,59,153,58.4,153.4,57.9z M154.1,66.9c-0.2,0-0.4-0.1-0.8-0.1c-0.4,0-0.8,0-1.2,0c-0.4,0-0.7,0.1-1,0.3
			c-0.3,0.2-0.4,0.4-0.4,0.8c0,0.3,0.2,0.5,0.6,0.5c0.4,0.1,0.7,0.1,1,0.1c0.5-0.1,0.9-0.3,1.2-0.6C153.8,67.5,154,67.2,154.1,66.9z
			"/>
		<path class="st4" d="M162.6,55.5c-0.1,0.4-0.3,1-0.6,1.8c-0.3,0.8-0.5,1.7-0.8,2.6c-0.3,1-0.5,2-0.7,3c-0.2,1-0.3,2-0.4,2.8
			c-0.1,0.9,0,1.6,0.1,2.1c0.1,0.6,0.4,0.9,0.8,1c0.2,0,0.4,0,0.7-0.2s0.5-0.4,0.8-0.8c0.3-0.3,0.5-0.7,0.8-1.1
			c0.3-0.4,0.5-0.9,0.8-1.4h0.4c-0.3,0.6-0.6,1.2-1,1.7c-0.3,0.6-0.7,1-1.1,1.5c-0.4,0.4-0.8,0.8-1.3,1c-0.4,0.2-0.9,0.4-1.3,0.3
			c-0.6,0-1.1-0.3-1.3-0.9c-0.2-0.6-0.3-1.3-0.3-2.3c0-0.9,0.1-1.9,0.4-3c0.2-1.1,0.5-2.2,0.7-3.3c0.3-1.1,0.6-2,0.8-2.9
			c0.3-0.9,0.5-1.5,0.7-2c-0.5,0-0.9,0-1.2,0c-0.3,0-0.6,0-0.8,0c-0.2,0-0.3,0.1-0.5,0.1c-0.1,0.1-0.2,0.2-0.3,0.3h-0.6
			c0.1-0.3,0.3-0.5,0.5-0.6c0.2-0.1,0.5-0.2,0.8-0.3s0.6-0.1,1-0.1c0.4,0,0.8,0,1.2,0c0.2-0.5,0.3-1,0.5-1.5c0.2-0.5,0.4-1,0.6-1.5
			h1.8c-0.2,0.5-0.4,0.9-0.6,1.4c-0.2,0.5-0.4,1-0.6,1.5h0.6l-0.3,0.5H162.6z"/>
		<path class="st4" d="M173.7,68.8c0.2,0,0.4,0,0.7-0.2c0.3-0.2,0.5-0.4,0.8-0.8s0.5-0.7,0.8-1.1c0.3-0.4,0.5-0.9,0.8-1.4h0.4
			c-0.3,0.6-0.6,1.2-1,1.7c-0.3,0.6-0.7,1-1.1,1.5c-0.4,0.4-0.8,0.8-1.3,1c-0.4,0.2-0.9,0.4-1.3,0.3c-0.5,0-0.8-0.2-1-0.5
			c-0.2-0.3-0.4-0.8-0.5-1.3c-0.1-0.5-0.1-1.2,0-1.9c0.1-0.7,0.2-1.5,0.3-2.3c-1.1,2.1-2.1,3.6-3,4.5c-0.9,0.9-1.6,1.4-2.3,1.5
			c-0.6,0.1-1.1-0.2-1.4-0.8c-0.3-0.6-0.5-1.4-0.6-2.3c0-1,0.1-2,0.4-3.1c0.3-1.1,0.7-2.2,1.4-3.2c0.6-1,1.4-1.8,2.4-2.5
			c1-0.7,2.1-1,3.5-1c0.2,0,0.3,0.1,0.3,0.3c0,0.2-0.1,0.3-0.4,0.3c-0.9,0.1-1.8,0.4-2.5,1c-0.7,0.6-1.3,1.3-1.8,2.2
			c-0.5,0.9-0.9,1.8-1.1,2.8c-0.3,1-0.4,1.9-0.4,2.7c0,0.8,0.1,1.4,0.3,1.9c0.2,0.5,0.6,0.6,1.1,0.5c0.5-0.1,1.1-0.7,1.8-1.6
			c0.7-0.9,1.6-2.4,2.6-4.4c0.2-0.7,0.4-1.5,0.6-2.4c0.2-0.9,0.5-1.7,0.7-2.4c0,0,0.2-0.1,0.3-0.2c0.2-0.1,0.4-0.2,0.6-0.3
			c0.2-0.1,0.4-0.2,0.6-0.3c0.2-0.1,0.4-0.2,0.5-0.2c-0.1,0.3-0.2,0.7-0.4,1.4c-0.2,0.7-0.4,1.4-0.6,2.3c-0.2,0.9-0.4,1.8-0.6,2.7
			c-0.2,1-0.3,1.8-0.4,2.6c-0.1,0.8,0,1.5,0.1,2C173,68.5,173.3,68.8,173.7,68.8z"/>
		<path class="st4" d="M190,63.8c-0.9,1.7-1.7,3-2.5,3.9c-0.7,0.9-1.4,1.5-2,1.8c-0.6,0.3-1.1,0.4-1.5,0.2c-0.4-0.2-0.7-0.5-0.9-1.1
			c-0.2-0.5-0.3-1.2-0.4-2c0-0.8,0-1.6,0.2-2.5c0.2-0.9,0.5-1.7,0.8-2.6c0.4-0.9,0.9-1.6,1.5-2.3c0.6-0.7,1.3-1.3,2.2-1.7
			c0.8-0.4,1.8-0.7,2.9-0.7c0.2,0,0.3,0.1,0.3,0.3c0,0.2-0.1,0.3-0.4,0.3c-0.9,0.1-1.8,0.4-2.5,1c-0.7,0.6-1.3,1.3-1.8,2.2
			c-0.5,0.9-0.9,1.8-1.1,2.8c-0.3,1-0.4,1.9-0.4,2.7c0,0.8,0.1,1.4,0.3,1.9c0.2,0.5,0.6,0.6,1.1,0.5c0.5-0.2,1.1-0.7,1.8-1.6
			c0.7-0.9,1.6-2.4,2.6-4.4l0-0.1c0.2-0.8,0.4-1.5,0.6-2.2c0.2-0.7,0.4-1.3,0.5-1.7c0.2-0.8,0.5-1.7,0.9-2.6c0.4-1,0.8-2,1.2-3
			c0.4-1,0.9-2,1.4-2.9c0.5-0.9,1-1.7,1.5-2.3l2,0c-0.6,0.7-1.2,1.4-1.7,2.3c-0.5,0.9-1,1.8-1.4,2.8c-0.4,1-0.8,2-1.2,2.9
			c-0.3,1-0.6,1.9-0.9,2.7c-0.3,1-0.6,1.9-0.8,2.6c-0.2,0.8-0.4,1.6-0.6,2.5c-0.2,0.9-0.3,1.7-0.4,2.5c-0.1,0.8,0,1.4,0.1,2
			c0.1,0.5,0.4,0.8,0.7,0.9c0.3,0,0.6-0.1,1-0.4c0.3-0.3,0.6-0.6,0.9-1c0.3-0.4,0.6-0.8,0.8-1.2c0.2-0.4,0.4-0.7,0.5-0.9h0.4
			c-0.2,0.5-0.5,1-0.8,1.5c-0.3,0.5-0.7,1-1.1,1.5c-0.4,0.5-0.8,0.8-1.3,1.1c-0.5,0.3-1,0.4-1.5,0.4c-0.5,0-0.8-0.2-1-0.5
			c-0.2-0.3-0.4-0.8-0.5-1.4c-0.1-0.6-0.1-1.2,0-1.9C189.8,65.3,189.9,64.6,190,63.8z"/>
		<path class="st4" d="M203.9,65.1c0.2-0.1,0.3-0.1,0.3,0c0,0.1,0,0.3-0.1,0.5c-0.1,0.2-0.2,0.4-0.3,0.6c-0.1,0.2-0.2,0.4-0.3,0.5
			c-0.7,1-1.6,1.9-2.6,2.5c-1,0.6-2,0.8-3,0.7c-0.9-0.1-1.5-0.5-1.9-1.1c-0.4-0.6-0.6-1.3-0.7-2.1c-0.1-0.8,0-1.6,0.1-2.4
			c0.2-0.8,0.3-1.5,0.5-2.1c0.3-0.9,0.7-1.7,1.2-2.3c0.4-0.6,0.9-1.2,1.4-1.6c0.5-0.4,1-0.7,1.5-0.9c0.5-0.2,1-0.3,1.4-0.3
			c0.7,0,1.3,0.1,1.7,0.4c0.4,0.3,0.6,0.7,0.5,1.3c-0.1,0.5-0.7,1.1-1.5,1.7c-0.9,0.6-2.3,1.2-4.2,1.7c-0.4,1-0.6,1.9-0.7,2.6
			c-0.1,0.8-0.2,1.4-0.1,2c0.1,0.5,0.2,1,0.4,1.3c0.2,0.3,0.5,0.6,0.8,0.7c0.4,0.2,0.9,0.2,1.4,0.1c0.5-0.1,1-0.3,1.6-0.7
			c0.5-0.3,1-0.8,1.5-1.3C203.1,66.3,203.5,65.7,203.9,65.1z M197.9,61.7c1.1-0.3,1.9-0.6,2.6-1c0.6-0.3,1.1-0.6,1.5-0.9
			c0.3-0.3,0.5-0.6,0.6-0.8c0.1-0.2,0-0.4-0.1-0.6c-0.1-0.2-0.4-0.2-0.7-0.2c-0.4,0-0.7,0.1-1.2,0.4c-0.4,0.2-0.9,0.6-1.3,1.1
			C198.7,60.1,198.2,60.8,197.9,61.7z"/>
		<path class="st4" d="M218.1,65.1c0.2-0.1,0.3-0.1,0.3,0c0,0.1,0,0.3-0.1,0.5c-0.1,0.2-0.2,0.4-0.3,0.6c-0.1,0.2-0.2,0.4-0.3,0.5
			c-0.7,1-1.6,1.9-2.6,2.5c-1,0.6-2,0.8-3,0.7c-0.9-0.1-1.5-0.5-1.9-1.1c-0.4-0.6-0.6-1.3-0.7-2.1c-0.1-0.8,0-1.6,0.1-2.4
			c0.2-0.8,0.3-1.5,0.5-2.1c0.3-0.9,0.7-1.7,1.2-2.3c0.4-0.6,0.9-1.2,1.4-1.6c0.5-0.4,1-0.7,1.5-0.9c0.5-0.2,1-0.3,1.4-0.3
			c0.7,0,1.3,0.1,1.7,0.4s0.6,0.7,0.5,1.3c-0.1,0.5-0.7,1.1-1.5,1.7c-0.9,0.6-2.3,1.2-4.2,1.7c-0.4,1-0.6,1.9-0.7,2.6
			c-0.1,0.8-0.2,1.4-0.1,2c0.1,0.5,0.2,1,0.4,1.3c0.2,0.3,0.5,0.6,0.8,0.7c0.4,0.2,0.9,0.2,1.4,0.1c0.5-0.1,1-0.3,1.6-0.7
			c0.5-0.3,1-0.8,1.5-1.3C217.4,66.3,217.8,65.7,218.1,65.1z M212.1,61.7c1.1-0.3,1.9-0.6,2.6-1c0.6-0.3,1.1-0.6,1.5-0.9
			c0.3-0.3,0.5-0.6,0.6-0.8c0.1-0.2,0-0.4-0.1-0.6c-0.1-0.2-0.4-0.2-0.8-0.2c-0.4,0-0.7,0.1-1.2,0.4c-0.4,0.2-0.9,0.6-1.3,1.1
			C212.9,60.1,212.5,60.8,212.1,61.7z"/>
		<path class="st4" d="M221.7,57.9l2.3-0.8c-0.5,0.7-0.9,1.3-1,1.8c-0.2,0.6-0.2,1.1-0.2,1.6c0.1,0.5,0.2,1,0.4,1.5
			c0.2,0.5,0.4,1,0.6,1.5c0.2,0.5,0.4,1,0.5,1.6c0.1,0.5,0.1,1.1,0,1.7c0.7,0.1,1.2,0,1.6-0.3c0.4-0.3,0.7-0.7,0.9-1.1h0.4
			c-0.2,0.6-0.6,1.1-1.1,1.5c-0.5,0.4-1.1,0.5-1.9,0.4c-0.2,1-0.7,1.7-1.4,2.1c-0.7,0.4-1.5,0.6-2.4,0.6c-0.3,0-0.6,0-0.9-0.1
			c-0.3-0.1-0.5-0.2-0.8-0.4c-0.2-0.2-0.4-0.4-0.5-0.6c-0.1-0.3-0.1-0.5-0.1-0.9c0.1-0.5,0.3-0.8,0.7-1.1c0.3-0.2,0.7-0.4,1.1-0.5
			c0.4-0.1,0.8-0.1,1.3,0c0.4,0,0.8,0.1,1.2,0.2c0.1-0.7,0.1-1.2,0-1.7c-0.2-0.5-0.4-1-0.7-1.4c-0.3-0.4-0.6-0.8-0.8-1.2
			c-0.3-0.4-0.4-0.8-0.4-1.3l-2.2,4.7H218c0.3-0.6,0.6-1.3,0.9-1.9c0.3-0.7,0.6-1.3,0.9-2c0.3-0.7,0.6-1.3,0.9-1.9
			C221,59,221.3,58.4,221.7,57.9z M222.5,66.9c-0.2,0-0.4-0.1-0.8-0.1c-0.4,0-0.8,0-1.2,0c-0.4,0-0.7,0.1-1,0.3
			c-0.3,0.2-0.4,0.4-0.4,0.8c0,0.3,0.2,0.5,0.6,0.5c0.4,0.1,0.7,0.1,1,0.1c0.5-0.1,0.9-0.3,1.2-0.6
			C222.1,67.5,222.3,67.2,222.5,66.9z"/>
		<path class="st4" d="M228.6,57.4c0.3-0.1,0.6-0.3,1-0.4c0.4-0.1,0.7-0.3,0.8-0.4l-1.2,5.7c0.9-1.6,1.7-2.9,2.5-3.8
			c0.7-0.9,1.4-1.5,2-1.7c0.6-0.3,1.1-0.3,1.5-0.1c0.4,0.2,0.7,0.6,0.9,1.1c0.2,0.6,0.3,1.2,0.4,2c0,0.8-0.1,1.6-0.3,2.5
			c-0.2,0.9-0.5,1.7-0.9,2.6c-0.4,0.9-0.9,1.6-1.5,2.3c1,0,1.8-0.2,2.5-0.5c0.6-0.3,1.1-0.9,1.6-1.8l0.4,0c-0.2,0.5-0.5,1-0.8,1.3
			c-0.3,0.3-0.7,0.6-1.1,0.8c-0.4,0.2-0.8,0.3-1.3,0.4c-0.5,0.1-1,0.1-1.6,0.1c-0.3,0.3-0.7,0.5-1,0.7c-0.4,0.2-0.8,0.4-1.2,0.6
			c-0.2,0.1-0.4,0.1-0.7,0.2c-0.3,0.1-0.7,0.2-1,0.2c-0.3,0-0.7,0-0.9,0c-0.3-0.1-0.5-0.2-0.5-0.4c-0.1-0.2,0-0.4,0.1-0.6
			c0.1-0.2,0.4-0.4,0.7-0.6c0.3-0.2,0.8-0.3,1.3-0.4c0.5-0.1,1.2-0.1,1.9-0.1c0.5-0.6,1-1.2,1.3-2c0.4-0.7,0.7-1.5,0.9-2.3
			c0.2-0.8,0.3-1.5,0.4-2.2c0-0.7,0-1.3-0.1-1.7c-0.1-0.5-0.3-0.8-0.6-0.9c-0.3-0.2-0.7-0.1-1.2,0.3c-0.5,0.3-1,0.9-1.7,1.8
			s-1.4,2.2-2.2,3.8c-0.5,2-1,4-1.4,6s-1,3.9-1.6,5.8c-0.3,0.8-0.5,1.6-0.9,2.4c-0.3,0.8-0.7,1.5-1.2,2.2c-0.4,0.6-0.9,1.2-1.5,1.6
			c-0.6,0.4-1.2,0.6-1.9,0.7c-1-0.1-1.7-0.4-2.2-0.9c-0.5-0.5-0.9-1.1-1-1.8c-0.2-0.7-0.1-1.4,0.1-2.2c0.2-0.8,0.6-1.5,1.2-2.1
			c0.4-0.5,0.9-0.9,1.5-1.3c0.6-0.4,1.1-0.7,1.7-1.1c0.6-0.3,1.2-0.7,1.8-1c0.6-0.3,1.2-0.6,1.8-1c0.3-0.9,0.5-1.9,0.8-2.9
			c0.3-1.1,0.5-2.2,0.8-3.4c0.3-1.2,0.5-2.4,0.8-3.7C228.1,60,228.3,58.7,228.6,57.4z M220.9,80.8c0.5-0.2,1-0.6,1.4-1.1
			s0.7-1.1,1-1.9c0.3-0.7,0.6-1.6,0.9-2.6c0.3-1,0.6-2,1-3.1c-0.5,0.3-1,0.5-1.6,0.8c-0.5,0.3-1.1,0.6-1.6,0.9
			c-0.6,0.3-1.1,0.6-1.6,1c-0.5,0.4-1,0.7-1.4,1.2c-0.5,0.5-0.8,1-1,1.7c-0.2,0.7-0.3,1.3-0.2,1.9c0.1,0.6,0.4,1,0.9,1.3
			C219.2,81.2,219.9,81.1,220.9,80.8z M230.1,68.6c0.3-0.1,0.6-0.2,0.9-0.4c0.3-0.2,0.6-0.4,0.8-0.6c-0.2,0-0.5,0-0.9,0
			c-0.4,0-0.7,0.1-1.1,0.2c-0.4,0.1-0.7,0.2-0.9,0.3s-0.3,0.3-0.3,0.5c0,0.1,0.2,0.2,0.4,0.2C229.3,68.9,229.7,68.8,230.1,68.6z"/>
		<path class="st4" d="M245.9,65.1c0.2-0.1,0.3-0.1,0.3,0c0,0.1,0,0.3-0.1,0.5c-0.1,0.2-0.2,0.4-0.3,0.6c-0.1,0.2-0.2,0.4-0.3,0.5
			c-0.7,1-1.6,1.9-2.6,2.5c-1,0.6-2,0.8-3,0.7c-0.9-0.1-1.5-0.5-1.9-1.1c-0.4-0.6-0.6-1.3-0.7-2.1c-0.1-0.8,0-1.6,0.1-2.4
			c0.2-0.8,0.3-1.5,0.5-2.1c0.3-0.9,0.7-1.7,1.2-2.3c0.4-0.6,0.9-1.2,1.4-1.6s1-0.7,1.5-0.9c0.5-0.2,1-0.3,1.4-0.3
			c0.7,0,1.3,0.1,1.7,0.4c0.4,0.3,0.6,0.7,0.5,1.3c-0.1,0.5-0.7,1.1-1.5,1.7c-0.9,0.6-2.3,1.2-4.2,1.7c-0.4,1-0.6,1.9-0.7,2.6
			c-0.1,0.8-0.2,1.4-0.1,2c0.1,0.5,0.2,1,0.4,1.3c0.2,0.3,0.5,0.6,0.8,0.7c0.4,0.2,0.9,0.2,1.4,0.1c0.5-0.1,1-0.3,1.6-0.7
			c0.5-0.3,1-0.8,1.5-1.3C245.2,66.3,245.6,65.7,245.9,65.1z M239.9,61.7c1.1-0.3,1.9-0.6,2.6-1c0.6-0.3,1.1-0.6,1.5-0.9
			c0.3-0.3,0.5-0.6,0.6-0.8c0.1-0.2,0-0.4-0.1-0.6c-0.1-0.2-0.4-0.2-0.7-0.2c-0.4,0-0.7,0.1-1.2,0.4c-0.4,0.2-0.9,0.6-1.3,1.1
			C240.7,60.1,240.3,60.8,239.9,61.7z"/>
		<path class="st4" d="M249.9,55.5c-0.1,0.4-0.3,1-0.6,1.8c-0.3,0.8-0.5,1.7-0.8,2.6c-0.3,1-0.5,2-0.7,3c-0.2,1-0.3,2-0.4,2.8
			s0,1.6,0.1,2.1c0.1,0.6,0.4,0.9,0.8,1c0.2,0,0.4,0,0.7-0.2c0.3-0.2,0.5-0.4,0.8-0.8c0.3-0.3,0.5-0.7,0.8-1.1s0.5-0.9,0.8-1.4h0.4
			c-0.3,0.6-0.6,1.2-1,1.7c-0.3,0.6-0.7,1-1.1,1.5c-0.4,0.4-0.8,0.8-1.3,1c-0.4,0.2-0.9,0.4-1.3,0.3c-0.6,0-1.1-0.3-1.3-0.9
			c-0.2-0.6-0.3-1.3-0.3-2.3c0-0.9,0.1-1.9,0.4-3c0.2-1.1,0.5-2.2,0.7-3.3c0.3-1.1,0.6-2,0.8-2.9c0.3-0.9,0.5-1.5,0.7-2
			c-0.5,0-0.9,0-1.2,0c-0.3,0-0.6,0-0.8,0c-0.2,0-0.3,0.1-0.5,0.1c-0.1,0.1-0.2,0.2-0.3,0.3h-0.6c0.1-0.3,0.3-0.5,0.5-0.6
			c0.2-0.1,0.5-0.2,0.8-0.3s0.6-0.1,1-0.1c0.4,0,0.8,0,1.2,0c0.2-0.5,0.3-1,0.5-1.5c0.2-0.5,0.4-1,0.6-1.5h1.8
			c-0.2,0.5-0.4,0.9-0.6,1.4c-0.2,0.5-0.4,1-0.6,1.5h0.6l-0.3,0.5H249.9z"/>
		<path class="st4" d="M258.4,56.8c-0.1,0.4-0.3,0.9-0.5,1.6c-0.2,0.7-0.4,1.5-0.6,2.4c-0.2,0.9-0.4,1.8-0.6,2.7
			c-0.2,0.9-0.3,1.8-0.3,2.5c-0.1,0.8,0,1.4,0.1,1.9c0.1,0.5,0.4,0.8,0.7,0.9c0.2,0,0.4,0,0.7-0.2c0.3-0.2,0.5-0.4,0.8-0.8
			c0.3-0.3,0.5-0.7,0.8-1.1s0.5-0.9,0.8-1.4h0.4c-0.3,0.6-0.6,1.2-1,1.7c-0.3,0.6-0.7,1-1.1,1.5c-0.4,0.4-0.8,0.8-1.2,1
			c-0.4,0.2-0.9,0.4-1.3,0.3c-0.4,0-0.7-0.2-0.9-0.4c-0.2-0.2-0.4-0.6-0.5-1c-0.1-0.4-0.2-0.9-0.2-1.4c0-0.5,0-1.1,0.1-1.7
			c0.1-0.7,0.2-1.4,0.3-2.1c0.2-0.7,0.3-1.4,0.5-2c0.2-0.6,0.3-1.2,0.5-1.7c0.1-0.5,0.3-0.8,0.3-1.1c-0.6,0.1-1.3,0.1-2,0
			c-0.2,0.7-0.4,1.5-0.6,2.2c-0.2,0.7-0.5,1.4-0.7,2c-0.2,0.6-0.4,1.2-0.6,1.6c-0.2,0.5-0.3,0.8-0.4,0.9h-0.4
			c0.1-0.1,0.2-0.4,0.4-0.9c0.2-0.4,0.4-1,0.6-1.6s0.5-1.3,0.7-2.1s0.5-1.5,0.6-2.2c-0.8-0.2-1.4-0.6-1.8-1.1
			c-0.4-0.5-0.6-1.1-0.6-1.7c0-0.6,0.2-1.1,0.5-1.5c0.3-0.5,0.8-0.7,1.4-0.7c0.4,0,0.7,0.1,1,0.3c0.2,0.2,0.4,0.6,0.4,1
			c0.1,0.4,0.1,0.9,0,1.5c-0.1,0.6-0.2,1.2-0.3,1.8c0.8,0.1,1.5-0.1,2.2-0.3C257.1,57.4,257.7,57.1,258.4,56.8z M253.8,58
			c0.1-0.6,0.2-1.1,0.3-1.6c0.1-0.5,0.1-1,0.1-1.3c0-0.4-0.1-0.7-0.3-0.9c-0.2-0.2-0.4-0.3-0.7-0.3c-0.5,0-0.9,0.2-1.2,0.6
			c-0.3,0.4-0.4,0.8-0.4,1.3c0,0.5,0.2,1,0.5,1.4C252.5,57.6,253,57.9,253.8,58z"/>
		<path class="st4" d="M269.8,68.8c0.2,0,0.4,0,0.7-0.2c0.3-0.2,0.5-0.4,0.8-0.8s0.5-0.7,0.8-1.1c0.3-0.4,0.5-0.9,0.8-1.4h0.4
			c-0.3,0.6-0.6,1.2-1,1.7c-0.3,0.6-0.7,1-1.1,1.5c-0.4,0.4-0.8,0.8-1.3,1c-0.4,0.2-0.9,0.4-1.3,0.3c-0.5,0-0.8-0.2-1-0.5
			c-0.2-0.3-0.4-0.8-0.5-1.3c-0.1-0.5-0.1-1.2,0-1.9c0.1-0.7,0.2-1.5,0.3-2.3c-1.1,2.1-2.1,3.6-3,4.5c-0.9,0.9-1.6,1.4-2.3,1.5
			c-0.6,0.1-1.1-0.2-1.4-0.8c-0.3-0.6-0.5-1.4-0.6-2.3c0-1,0.1-2,0.4-3.1c0.3-1.1,0.7-2.2,1.4-3.2c0.6-1,1.4-1.8,2.4-2.5
			c1-0.7,2.1-1,3.5-1c0.2,0,0.3,0.1,0.3,0.3c0,0.2-0.1,0.3-0.4,0.3c-0.9,0.1-1.8,0.4-2.5,1c-0.7,0.6-1.3,1.3-1.8,2.2
			c-0.5,0.9-0.9,1.8-1.1,2.8c-0.3,1-0.4,1.9-0.4,2.7c0,0.8,0.1,1.4,0.3,1.9c0.2,0.5,0.6,0.6,1.1,0.5c0.5-0.1,1.1-0.7,1.8-1.6
			c0.7-0.9,1.6-2.4,2.6-4.4c0.2-0.7,0.4-1.5,0.6-2.4c0.2-0.9,0.5-1.7,0.7-2.4c0,0,0.2-0.1,0.3-0.2c0.2-0.1,0.4-0.2,0.6-0.3
			s0.4-0.2,0.6-0.3c0.2-0.1,0.4-0.2,0.5-0.2c-0.1,0.3-0.2,0.7-0.4,1.4c-0.2,0.7-0.4,1.4-0.6,2.3c-0.2,0.9-0.4,1.8-0.6,2.7
			c-0.2,1-0.3,1.8-0.4,2.6c-0.1,0.8,0,1.5,0.1,2C269.1,68.5,269.4,68.8,269.8,68.8z"/>
	</g>
</g>
</svg>
