<?xml version="1.0" encoding="utf-8"?>
<!-- Generator: Adobe Illustrator 23.0.0, SVG Export Plug-In . SVG Version: 6.00 Build 0)  -->
<svg version="1.1" id="Capa_1" xmlns="http://www.w3.org/2000/svg" xmlns:xlink="http://www.w3.org/1999/xlink" x="0px" y="0px"
	 viewBox="0 0 776 587.5" style="enable-background:new 0 0 776 587.5;" xml:space="preserve">
<style type="text/css">
	.st0{fill:#6A8699;}
	.st1{fill:#EDE2D2;}
</style>
<g>
	<path class="st0" d="M747.4,587.5H28.6C12.8,587.5,0,574.7,0,558.9V28.6C0,12.8,12.8,0,28.6,0h718.8C763.2,0,776,12.8,776,28.6
		v530.2C776,574.7,763.2,587.5,747.4,587.5z"/>
	<g>
		<g>
			<g>
				<g>
					
						<ellipse transform="matrix(0.905 -0.4255 0.4255 0.905 -94.918 74.5178)" class="st1" cx="119.4" cy="249.8" rx="16.7" ry="16.7"/>
				</g>
				<g>
					<g>
						<path class="st1" d="M251.7,53.2H65.4c-9.2,0-16.7,7.5-16.7,16.7v445.2c0,9.2,7.5,16.7,16.7,16.7h186.3
							c9.2,0,16.7-7.5,16.7-16.7V69.9C268.5,60.7,261,53.2,251.7,53.2z M64,318.7v-76.5c0-3.1,2.5-5.7,5.7-5.7h3.7
							c3.1,0,5.7,2.5,5.7,5.7v76.5c0,3.1-2.5,5.7-5.7,5.7h-3.7C66.5,324.3,64,321.8,64,318.7z M239.6,510.3H77.5c-2.8,0-5-2.2-5-5
							c0-2.8,2.2-5,5-5h162.1c2.8,0,5,2.2,5,5C244.6,508.1,242.4,510.3,239.6,510.3z M239.6,489.4H77.5c-2.8,0-5-2.2-5-5
							c0-2.8,2.2-5,5-5h162.1c2.8,0,5,2.2,5,5C244.6,487.2,242.4,489.4,239.6,489.4z M239.6,468.5H77.5c-2.8,0-5-2.2-5-5
							c0-2.8,2.2-5,5-5h162.1c2.8,0,5,2.2,5,5C244.6,466.3,242.4,468.5,239.6,468.5z M98.8,249.8c0-11.4,9.2-20.6,20.6-20.6
							c11.4,0,20.6,9.2,20.6,20.6c0,11.4-9.2,20.6-20.6,20.6C108,270.3,98.8,261.1,98.8,249.8z M239.6,105.8H77.5c-2.8,0-5-2.2-5-5
							s2.2-5,5-5h162.1c2.8,0,5,2.2,5,5S242.4,105.8,239.6,105.8z M239.6,84.9H77.5c-2.8,0-5-2.2-5-5c0-2.8,2.2-5,5-5h162.1
							c2.8,0,5,2.2,5,5C244.6,82.6,242.4,84.9,239.6,84.9z"/>
					</g>
				</g>
			</g>
			<g>
				<g>
					
						<ellipse transform="matrix(0.905 -0.4255 0.4255 0.905 -73.1238 172.0985)" class="st1" cx="348.7" cy="249.8" rx="16.7" ry="16.7"/>
				</g>
				<g>
					<g>
						<path class="st1" d="M481.1,53.2H294.7c-9.2,0-16.7,7.5-16.7,16.7v445.2c0,9.2,7.5,16.7,16.7,16.7h186.3
							c9.2,0,16.7-7.5,16.7-16.7V69.9C497.8,60.7,490.3,53.2,481.1,53.2z M293.3,318.7v-76.5c0-3.1,2.5-5.7,5.7-5.7h3.7
							c3.1,0,5.7,2.5,5.7,5.7v76.5c0,3.1-2.5,5.7-5.7,5.7H299C295.9,324.3,293.3,321.8,293.3,318.7z M469,510.3H306.9
							c-2.8,0-5-2.2-5-5c0-2.8,2.2-5,5-5H469c2.8,0,5,2.2,5,5C473.9,508.1,471.7,510.3,469,510.3z M469,489.4H306.9
							c-2.8,0-5-2.2-5-5c0-2.8,2.2-5,5-5H469c2.8,0,5,2.2,5,5C473.9,487.2,471.7,489.4,469,489.4z M469,468.5H306.9
							c-2.8,0-5-2.2-5-5c0-2.8,2.2-5,5-5H469c2.8,0,5,2.2,5,5C473.9,466.3,471.7,468.5,469,468.5z M328.1,249.8
							c0-11.4,9.2-20.6,20.6-20.6c11.4,0,20.6,9.2,20.6,20.6c0,11.4-9.2,20.6-20.6,20.6C337.4,270.3,328.1,261.1,328.1,249.8z
							 M469,105.8H306.9c-2.8,0-5-2.2-5-5s2.2-5,5-5H469c2.8,0,5,2.2,5,5S471.7,105.8,469,105.8z M469,84.9H306.9c-2.8,0-5-2.2-5-5
							c0-2.8,2.2-5,5-5H469c2.8,0,5,2.2,5,5C473.9,82.6,471.7,84.9,469,84.9z"/>
					</g>
				</g>
			</g>
			<g>
				<g>
					<g>
						
							<ellipse transform="matrix(0.905 -0.4255 0.4255 0.905 -51.3296 269.6792)" class="st1" cx="578.1" cy="249.8" rx="16.7" ry="16.7"/>
					</g>
					<g>
						<g>
							<path class="st1" d="M710.4,53.2H524.1c-9.2,0-16.7,7.5-16.7,16.7v445.2c0,9.2,7.5,16.7,16.7,16.7h186.3
								c9.2,0,16.7-7.5,16.7-16.7V69.9C727.2,60.7,719.7,53.2,710.4,53.2z M522.7,318.7v-76.5c0-3.1,2.5-5.7,5.7-5.7h3.7
								c3.1,0,5.7,2.5,5.7,5.7v76.5c0,3.1-2.5,5.7-5.7,5.7h-3.7C525.2,324.3,522.7,321.8,522.7,318.7z M698.3,510.3H536.2
								c-2.8,0-5-2.2-5-5c0-2.8,2.2-5,5-5h162.1c2.8,0,5,2.2,5,5C703.3,508.1,701.1,510.3,698.3,510.3z M698.3,489.4H536.2
								c-2.8,0-5-2.2-5-5c0-2.8,2.2-5,5-5h162.1c2.8,0,5,2.2,5,5C703.3,487.2,701.1,489.4,698.3,489.4z M698.3,468.5H536.2
								c-2.8,0-5-2.2-5-5c0-2.8,2.2-5,5-5h162.1c2.8,0,5,2.2,5,5C703.3,466.3,701.1,468.5,698.3,468.5z M557.5,249.8
								c0-11.4,9.2-20.6,20.6-20.6c11.4,0,20.6,9.2,20.6,20.6c0,11.4-9.2,20.6-20.6,20.6C566.7,270.3,557.5,261.1,557.5,249.8z
								 M698.3,105.8H536.2c-2.8,0-5-2.2-5-5s2.2-5,5-5h162.1c2.8,0,5,2.2,5,5S701.1,105.8,698.3,105.8z M698.3,84.9H536.2
								c-2.8,0-5-2.2-5-5c0-2.8,2.2-5,5-5h162.1c2.8,0,5,2.2,5,5C703.3,82.6,701.1,84.9,698.3,84.9z"/>
						</g>
					</g>
				</g>
			</g>
		</g>
	</g>
</g>
</svg>
