<?xml version="1.0" encoding="utf-8"?>
<!-- Generator: Adobe Illustrator 24.0.0, SVG Export Plug-In . SVG Version: 6.00 Build 0)  -->
<svg version="1.1" id="Capa_1" xmlns="http://www.w3.org/2000/svg" xmlns:xlink="http://www.w3.org/1999/xlink" x="0px" y="0px"
	 viewBox="0 0 1874.27 403.35" style="enable-background:new 0 0 1874.27 403.35;" xml:space="preserve">
<style type="text/css">
	.st0{fill:#00ABB5;}
	.st1{fill:#00959F;}
	.st2{fill:#434343;}
</style>
<g>
	<g>
		<path class="st0" d="M252.72,165.34h-2.59V123.2c0-49.15-39.84-88.99-88.99-88.99c-49.15,0-88.99,39.84-88.99,88.99v23.62H97.5
			v-10.19c-5.37-0.24-9.65-4.66-9.65-10.09c0-5.56,4.48-10.06,10.03-10.11c3.45-31.9,30.45-56.73,63.27-56.73
			c35.15,0,63.65,28.49,63.65,63.65v42.01H69.57c-10.04,0-18.19,8.14-18.19,18.19v163.36c0,10.04,8.14,18.19,18.19,18.19h183.16
			c10.04,0,18.19-8.14,18.19-18.19V183.53C270.91,173.48,262.77,165.34,252.72,165.34z"/>
		<path class="st1" d="M252.72,165.34h-91.58v199.73h91.58c10.04,0,18.19-8.14,18.19-18.19V183.53
			C270.91,173.48,262.77,165.34,252.72,165.34z"/>
	</g>
	<path class="st2" d="M182.7,238.89c0-11.91-9.65-21.56-21.56-21.56c-11.91,0-21.56,9.65-21.56,21.56c0,8.6,5.04,16.02,12.32,19.48
		l-12.32,54.71h43.12l-12.32-54.71C177.67,254.91,182.7,247.49,182.7,238.89z"/>
</g>
<g>
	<g>
		<path class="st2" d="M323.51,134.18h22.89v138.27c0,16.4,0.31,26.63,0.93,30.67c1.15,9.03,3.79,16.58,7.94,22.66
			c4.15,6.07,10.54,11.16,19.15,15.26c8.62,4.1,17.29,6.15,26.01,6.15c7.57,0,14.84-1.61,21.8-4.82
			c6.95-3.22,12.77-7.69,17.44-13.39c4.67-5.71,8.1-12.61,10.28-20.71c1.56-5.81,2.33-17.75,2.33-35.81V134.18h22.89v138.27
			c0,20.45-2,36.98-6,49.59c-4,12.61-11.99,23.59-23.98,32.94c-11.99,9.34-26.5,14.01-43.52,14.01c-18.48,0-34.31-4.42-47.49-13.24
			c-13.18-8.82-22.01-20.5-26.47-35.04c-2.8-8.93-4.2-25.02-4.2-48.27V134.18z"/>
		<path class="st2" d="M527.96,193.82h21.8v30.36c8.72-11.62,18.38-20.32,28.96-26.08c10.59-5.76,22.12-8.64,34.57-8.64
			c12.66,0,23.9,3.22,33.71,9.65c9.81,6.44,17.05,15.1,21.72,26.01c4.67,10.9,7.01,27.87,7.01,50.92v87.2h-21.8v-80.82
			c0-19.52-0.82-32.54-2.43-39.08c-2.53-11.21-7.37-19.65-14.54-25.31c-7.16-5.66-16.51-8.48-28.03-8.48
			c-13.19,0-25,4.36-35.43,13.08c-10.44,8.72-17.32,19.52-20.64,32.38c-2.08,8.41-3.12,23.77-3.12,46.09v62.13h-21.8V193.82z"/>
		<path class="st2" d="M726.46,267.62h85.65v19h-85.65V267.62z"/>
		<path class="st2" d="M886.94,128.41h21.8v234.82h-21.8V128.41z"/>
		<path class="st2" d="M1034.24,189.45c26.1,0,47.73,9.45,64.89,28.34c15.59,17.23,23.4,37.63,23.4,61.2
			c0,23.67-8.25,44.35-24.72,62.05c-16.48,17.7-37.67,26.55-63.57,26.55c-26,0-47.24-8.85-63.72-26.55
			c-16.48-17.7-24.72-38.38-24.72-62.05c0-23.46,7.8-43.81,23.4-61.04C986.35,198.95,1008.03,189.45,1034.24,189.45z
			 M1034.16,210.79c-18.12,0-33.7,6.7-46.72,20.09c-13.02,13.39-19.53,29.58-19.53,48.58c0,12.25,2.97,23.67,8.91,34.26
			c5.94,10.59,13.96,18.76,24.06,24.52c10.11,5.76,21.2,8.64,33.28,8.64s23.18-2.88,33.29-8.64c10.11-5.76,18.13-13.94,24.06-24.52
			c5.94-10.59,8.91-22.01,8.91-34.26c0-19-6.53-35.19-19.61-48.58C1067.73,217.48,1052.18,210.79,1034.16,210.79z"/>
		<path class="st2" d="M1327.29,229.01l-17.28,10.74c-14.94-19.83-35.31-29.74-61.13-29.74c-20.64,0-37.77,6.63-51.4,19.91
			s-20.45,29.4-20.45,48.37c0,12.34,3.13,23.96,9.4,34.84c6.27,10.88,14.89,19.33,25.82,25.35c10.94,6.01,23.2,9.02,36.78,9.02
			c24.89,0,45.21-9.91,60.97-29.74l17.28,11.37c-8.1,12.19-18.97,21.66-32.62,28.38c-13.65,6.72-29.2,10.08-46.63,10.08
			c-26.78,0-49-8.51-66.65-25.53c-17.65-17.03-26.47-37.74-26.47-62.13c0-16.4,4.13-31.64,12.38-45.7
			c8.25-14.06,19.59-25.04,34.02-32.93c14.42-7.89,30.57-11.84,48.43-11.84c11.21,0,22.04,1.71,32.47,5.14
			c10.44,3.42,19.29,7.89,26.55,13.39C1316.03,213.49,1322.2,220.49,1327.29,229.01z"/>
		<path class="st2" d="M1369.02,128.41h21.81v133.78l78.54-68.37h32.01l-93.11,80.81l98.57,88.6h-30.68l-85.32-76.28v76.28h-21.81
			V128.41z"/>
		<path class="st2" d="M1671.89,307.02l18.38,9.65c-6.03,11.84-12.99,21.39-20.89,28.65c-7.9,7.27-16.78,12.79-26.65,16.58
			c-9.88,3.79-21.05,5.68-33.51,5.68c-27.64,0-49.25-9.05-64.84-27.17c-15.58-18.12-23.38-38.59-23.38-61.43
			c0-21.49,6.6-40.64,19.8-57.46c16.73-21.38,39.12-32.07,67.17-32.07c28.89,0,51.95,10.95,69.2,32.86
			c12.26,15.46,18.49,34.77,18.7,57.92h-152.44c0.41,19.68,6.7,35.81,18.86,48.39s27.18,18.87,45.05,18.87
			c8.63,0,17.02-1.49,25.18-4.49c8.16-3,15.1-6.98,20.81-11.95C1659.05,326.1,1665.23,318.08,1671.89,307.02z M1671.89,261.39
			c-2.91-11.62-7.14-20.92-12.71-27.87c-5.56-6.95-12.91-12.56-22.06-16.81c-9.15-4.26-18.76-6.38-28.84-6.38
			c-16.63,0-30.92,5.35-42.87,16.04c-8.74,7.78-15.33,19.47-19.8,35.04H1671.89z"/>
		<path class="st2" d="M1728.25,193.82h22.27v24.75c6.65-9.76,13.65-17.05,21.02-21.88c7.37-4.82,15.05-7.24,23.05-7.24
			c6.02,0,12.46,1.92,19.31,5.76l-11.37,18.37c-4.57-1.97-8.41-2.96-11.52-2.96c-7.27,0-14.28,2.99-21.02,8.95
			c-6.75,5.97-11.89,15.23-15.41,27.79c-2.7,9.66-4.05,29.17-4.05,58.55v57.3h-22.27V193.82z"/>
	</g>
</g>
</svg>
